<svg id="svg" version="1.1" xmlns="http://www.w3.org/2000/svg" xmlns:xlink="http://www.w3.org/1999/xlink" width="400" height="400" viewBox="0, 0, 400,400"><g id="svgg"><path id="path0" d="M9.600 200.000 L 9.600 391.200 200.800 391.200 L 392.000 391.200 392.000 200.000 L 392.000 8.800 200.800 8.800 L 9.600 8.800 9.600 200.000 M388.700 200.100 L 388.600 388.200 200.600 388.200 L 12.600 388.200 12.500 200.100 L 12.399 12.000 200.600 12.000 L 388.801 12.000 388.700 200.100 M337.000 29.200 C 336.864 29.420,336.408 29.600,335.987 29.600 C 331.378 29.600,323.960 37.525,322.437 44.077 C 318.908 59.249,334.883 72.733,349.060 66.550 C 349.754 66.247,350.439 66.000,350.584 66.000 C 350.729 66.000,351.787 65.334,352.935 64.520 C 368.874 53.219,360.939 28.800,341.329 28.800 C 339.039 28.800,337.139 28.976,337.000 29.200 M345.600 32.016 C 356.154 34.343,361.699 46.351,356.668 55.982 C 348.588 71.447,325.128 65.974,325.028 48.600 C 324.963 37.349,334.589 29.589,345.600 32.016 M53.600 86.800 L 53.600 135.200 101.800 135.200 L 150.000 135.200 150.000 87.050 L 150.000 38.900 148.750 38.650 C 148.063 38.513,126.373 38.400,100.550 38.400 L 53.600 38.400 53.600 86.800 M174.800 86.400 L 174.800 134.400 223.000 134.400 L 271.200 134.400 271.200 86.400 L 271.200 38.400 223.000 38.400 L 174.800 38.400 174.800 86.400 M267.902 86.300 L 267.800 131.400 223.443 131.502 C 190.997 131.576,178.940 131.482,178.543 131.153 C 177.963 130.671,177.689 42.044,178.267 41.467 C 178.413 41.320,198.664 41.200,223.268 41.200 L 268.003 41.200 267.902 86.300 M146.702 86.298 C 146.803 129.996,146.796 130.404,146.000 131.200 C 145.204 131.996,144.796 132.003,101.098 131.902 L 57.000 131.800 56.898 86.898 L 56.797 41.997 101.698 42.098 L 146.600 42.200 146.702 86.298 M53.600 204.400 L 53.600 252.400 101.800 252.400 L 150.000 252.400 150.000 204.400 L 150.000 156.400 101.800 156.400 L 53.600 156.400 53.600 204.400 M174.800 204.400 L 174.800 252.400 223.000 252.400 L 271.200 252.400 271.200 204.400 L 271.200 156.400 223.000 156.400 L 174.800 156.400 174.800 204.400 M308.400 204.600 L 308.400 252.400 338.400 252.400 L 368.400 252.400 368.400 204.600 L 368.400 156.800 338.400 156.800 L 308.400 156.800 308.400 204.600 M146.386 159.974 C 147.151 161.403,146.942 248.201,146.171 248.971 C 145.608 249.535,140.976 249.600,101.171 249.600 L 56.800 249.600 56.800 204.400 L 56.800 159.200 101.386 159.200 C 145.057 159.200,145.980 159.216,146.386 159.974 M267.902 204.300 L 267.800 249.400 223.800 249.510 C 199.600 249.570,179.395 249.522,178.900 249.402 L 178.000 249.185 178.000 204.672 C 178.000 170.585,178.112 160.048,178.480 159.680 C 178.848 159.312,189.387 159.200,223.482 159.200 L 268.003 159.200 267.902 204.300 M365.400 205.000 L 365.400 249.400 338.400 249.400 L 311.400 249.400 311.297 205.400 C 311.240 181.200,311.280 161.174,311.386 160.897 C 311.537 160.499,317.171 160.416,338.489 160.497 L 365.400 160.600 365.400 205.000 M51.600 328.400 L 51.600 376.400 123.000 376.400 L 194.400 376.400 194.400 328.647 L 194.400 280.893 193.500 280.652 C 193.005 280.519,160.875 280.408,122.100 280.405 L 51.600 280.400 51.600 328.400 M273.600 329.000 L 273.600 377.200 321.800 377.200 L 370.000 377.200 370.000 329.000 L 370.000 280.800 321.800 280.800 L 273.600 280.800 273.600 329.000 M144.600 328.400 L 144.600 373.400 101.200 373.510 C 77.330 373.570,57.395 373.522,56.900 373.402 L 56.000 373.185 56.000 328.672 C 56.000 294.495,56.112 284.048,56.482 283.678 C 56.853 283.307,67.032 283.220,100.782 283.298 L 144.600 283.400 144.600 328.400 M191.400 328.400 L 191.400 373.400 169.800 373.400 L 148.200 373.400 148.098 328.297 L 147.997 283.193 169.698 283.297 L 191.400 283.400 191.400 328.400 M366.167 285.043 C 366.739 285.262,366.800 289.564,366.800 329.643 L 366.800 374.000 321.800 374.000 L 276.800 374.000 276.800 329.667 C 276.800 305.283,276.920 285.213,277.067 285.067 C 277.400 284.734,365.300 284.710,366.167 285.043 M157.462 306.331 C 156.595 307.289,156.444 328.122,157.300 328.676 C 157.575 328.854,160.500 329.000,163.800 329.001 C 173.907 329.002,177.589 331.498,177.598 338.354 C 177.608 346.445,168.827 350.621,159.400 347.008 C 154.574 345.159,153.955 345.419,154.628 349.010 C 155.434 353.304,169.186 354.676,176.094 351.152 C 186.014 346.091,186.785 330.543,177.342 325.972 C 174.642 324.665,173.053 324.347,167.800 324.061 L 163.000 323.800 162.890 317.757 C 162.752 310.188,161.885 310.842,172.231 310.708 L 180.600 310.600 180.968 309.109 C 181.219 308.096,181.189 307.295,180.877 306.609 L 180.417 305.600 169.271 305.600 C 158.980 305.600,158.073 305.656,157.462 306.331 " stroke="none" fill="#040404" fill-rule="evenodd"></path><path id="path1" d="M178.800 86.400 L 178.800 131.200 223.200 131.200 L 267.600 131.200 267.600 86.400 L 267.600 41.600 223.200 41.600 L 178.800 41.600 178.800 86.400 M56.800 86.802 L 56.800 131.203 101.300 131.102 L 145.800 131.000 145.902 86.700 L 146.003 42.400 101.402 42.400 L 56.800 42.400 56.800 86.802 M56.800 204.400 L 56.800 249.203 101.300 249.102 L 145.800 249.000 145.800 204.400 L 145.800 159.800 101.300 159.698 L 56.800 159.597 56.800 204.400 M178.800 204.400 L 178.800 249.200 223.200 249.200 L 267.600 249.200 267.600 204.400 L 267.600 159.600 223.200 159.600 L 178.800 159.600 178.800 204.400 M311.600 205.000 L 311.600 249.200 338.400 249.200 L 365.200 249.200 365.200 205.000 L 365.200 160.800 338.400 160.800 L 311.600 160.800 311.600 205.000 M56.800 328.400 L 56.800 373.200 100.600 373.200 L 144.400 373.200 144.400 328.400 L 144.400 283.600 100.600 283.600 L 56.800 283.600 56.800 328.400 M148.400 328.400 L 148.400 373.200 169.800 373.200 L 191.200 373.200 191.200 328.400 L 191.200 283.600 169.800 283.600 L 148.400 283.600 148.400 328.400 M277.300 285.465 C 276.904 285.625,276.800 294.834,276.800 329.633 L 276.800 373.600 321.600 373.600 L 366.400 373.600 366.400 329.643 C 366.400 289.929,366.339 285.662,365.767 285.443 C 365.011 285.152,278.021 285.174,277.300 285.465 M181.043 305.900 C 181.881 307.004,181.739 309.861,180.800 310.800 C 180.052 311.548,179.467 311.600,171.800 311.600 L 163.600 311.600 163.600 317.600 L 163.600 323.600 167.623 323.600 C 171.345 323.600,174.841 324.114,175.800 324.803 C 176.020 324.960,176.683 325.205,177.274 325.346 C 178.600 325.662,182.800 329.597,182.800 330.523 C 182.800 330.895,182.943 331.200,183.117 331.200 C 184.216 331.200,184.835 339.585,183.942 342.372 C 182.279 347.559,176.622 352.800,172.684 352.800 C 172.114 352.800,171.536 352.980,171.400 353.200 C 171.092 353.699,162.716 353.733,161.028 353.243 C 154.876 351.454,154.427 351.166,154.111 348.813 C 153.602 345.016,154.711 344.406,158.689 346.300 C 165.034 349.320,176.400 346.575,176.400 342.022 C 176.400 341.596,176.580 341.136,176.800 341.000 C 177.400 340.629,177.270 336.835,176.590 334.883 C 175.136 330.707,172.416 329.600,163.609 329.600 C 159.282 329.600,157.212 329.452,156.880 329.120 C 156.045 328.285,156.213 306.870,157.062 305.931 C 158.057 304.832,180.210 304.803,181.043 305.900 " stroke="none" fill="#ac8c6c" fill-rule="evenodd"></path><path id="path2" d="M0.000 200.000 L 0.000 400.000 200.000 400.000 L 400.000 400.000 400.000 200.000 L 400.000 0.000 200.000 0.000 L 0.000 0.000 0.000 200.000 M392.200 200.000 L 392.200 391.400 200.700 391.500 L 9.200 391.601 9.200 200.267 C 9.200 95.034,9.320 8.813,9.467 8.666 C 9.614 8.519,95.789 8.444,200.967 8.500 L 392.200 8.600 392.200 200.000 M12.800 200.200 L 12.800 388.000 200.600 388.000 L 388.400 388.000 388.400 200.200 L 388.400 12.400 200.600 12.400 L 12.800 12.400 12.800 200.200 M348.551 29.367 C 354.540 31.621,358.018 35.255,361.371 42.760 C 362.094 44.380,361.890 52.297,361.066 54.600 C 359.692 58.436,354.892 64.800,353.372 64.800 C 353.094 64.800,352.807 64.960,352.733 65.156 C 352.461 65.884,348.105 67.641,344.973 68.286 C 331.848 70.988,319.278 58.399,321.778 45.056 C 324.158 32.358,336.805 24.946,348.551 29.367 M338.400 32.467 C 335.052 33.175,331.510 35.146,329.635 37.345 C 329.286 37.754,328.773 38.328,328.496 38.620 C 325.895 41.360,324.718 49.102,326.210 53.664 C 329.813 64.680,344.910 68.176,353.177 59.909 C 364.615 48.471,354.197 29.124,338.400 32.467 M149.376 38.391 L 150.403 38.781 150.302 87.091 L 150.200 135.400 101.700 135.502 L 53.200 135.603 53.200 86.802 L 53.200 38.000 100.774 38.000 C 130.768 38.000,148.728 38.144,149.376 38.391 M271.600 86.400 L 271.600 134.800 223.000 134.800 L 174.400 134.800 174.400 86.400 L 174.400 38.000 223.000 38.000 L 271.600 38.000 271.600 86.400 M150.200 204.400 L 150.200 252.600 101.700 252.702 L 53.200 252.803 53.200 204.400 L 53.200 155.997 101.700 156.098 L 150.200 156.200 150.200 204.400 M271.600 204.400 L 271.600 252.800 223.000 252.800 L 174.400 252.800 174.400 204.400 L 174.400 156.000 223.000 156.000 L 271.600 156.000 271.600 204.400 M368.800 204.600 L 368.800 252.800 338.400 252.800 L 308.000 252.800 308.000 204.600 L 308.000 156.400 338.400 156.400 L 368.800 156.400 368.800 204.600 M193.900 280.252 L 194.800 280.493 194.800 328.647 L 194.800 376.800 123.000 376.800 L 51.200 376.800 51.200 328.400 L 51.200 280.000 122.100 280.005 C 161.095 280.008,193.405 280.119,193.900 280.252 M370.200 329.000 L 370.200 377.400 321.700 377.502 L 273.200 377.603 273.200 329.268 C 273.200 302.684,273.321 280.813,273.468 280.665 C 273.616 280.518,295.441 280.443,321.968 280.498 L 370.200 280.600 370.200 329.000 " stroke="none" fill="#fbfbfb" fill-rule="evenodd"></path><path id="path3" d="M9.398 200.000 C 9.398 305.270,9.444 348.335,9.500 295.700 C 9.556 243.065,9.556 156.935,9.500 104.300 C 9.444 51.665,9.398 94.730,9.398 200.000 M12.599 200.200 L 12.600 388.200 200.500 388.201 L 388.400 388.201 200.600 388.100 L 12.801 387.999 12.700 200.100 L 12.599 12.200 12.599 200.200 M340.300 28.689 C 341.015 28.778,342.185 28.778,342.900 28.689 C 343.615 28.601,343.030 28.528,341.600 28.528 C 340.170 28.528,339.585 28.601,340.300 28.689 M340.291 31.889 C 341.001 31.977,342.261 31.979,343.091 31.892 C 343.921 31.805,343.340 31.733,341.800 31.731 C 340.260 31.729,339.581 31.800,340.291 31.889 M327.568 34.300 C 325.706 36.303,324.638 37.600,324.849 37.600 C 324.944 37.600,325.973 36.520,327.135 35.200 C 329.469 32.548,329.762 31.940,327.568 34.300 M329.381 36.900 L 327.800 38.600 329.500 37.019 C 331.081 35.548,331.384 35.200,331.081 35.200 C 331.016 35.200,330.251 35.965,329.381 36.900 M53.385 38.500 C 53.280 38.775,53.241 60.690,53.299 87.200 L 53.403 135.400 53.502 86.897 L 53.600 38.394 101.162 38.497 C 127.321 38.554,148.640 38.465,148.538 38.300 C 148.191 37.737,53.599 37.936,53.385 38.500 M198.931 38.300 C 212.313 38.358,234.093 38.358,247.331 38.300 C 260.569 38.241,249.620 38.194,223.000 38.194 C 196.380 38.194,185.549 38.242,198.931 38.300 M178.267 41.467 C 177.689 42.044,177.963 130.671,178.543 131.153 C 178.940 131.482,190.997 131.576,223.443 131.502 L 267.800 131.400 267.902 86.300 L 268.003 41.200 223.268 41.200 C 198.664 41.200,178.413 41.320,178.267 41.467 M267.600 86.400 L 267.600 131.200 223.200 131.200 L 178.800 131.200 178.800 86.400 L 178.800 41.600 223.200 41.600 L 267.600 41.600 267.600 86.400 M101.302 42.299 L 146.003 42.403 145.902 86.702 L 145.800 131.000 101.277 131.102 C 71.853 131.169,56.838 131.339,57.001 131.602 C 57.559 132.504,145.092 132.108,146.002 131.198 C 146.796 130.404,146.803 129.964,146.702 86.298 L 146.600 42.200 101.600 42.197 L 56.600 42.195 101.302 42.299 M361.481 47.200 C 361.606 48.410,361.774 49.475,361.854 49.567 C 362.135 49.887,361.917 46.991,361.587 46.000 C 361.371 45.354,361.334 45.780,361.481 47.200 M358.509 48.400 C 358.509 49.390,358.587 49.795,358.682 49.300 C 358.778 48.805,358.778 47.995,358.682 47.500 C 358.587 47.005,358.509 47.410,358.509 48.400 M321.693 48.400 C 321.693 49.170,321.775 49.485,321.876 49.100 C 321.976 48.715,321.976 48.085,321.876 47.700 C 321.775 47.315,321.693 47.630,321.693 48.400 M324.893 49.600 C 324.893 50.370,324.975 50.685,325.076 50.300 C 325.176 49.915,325.176 49.285,325.076 48.900 C 324.975 48.515,324.893 48.830,324.893 49.600 M322.068 51.800 C 322.062 52.240,322.211 52.960,322.400 53.400 C 322.838 54.419,322.838 53.368,322.400 52.000 C 322.143 51.196,322.077 51.157,322.068 51.800 M357.084 60.508 C 355.255 62.888,355.243 62.919,356.818 61.210 C 358.262 59.644,359.452 57.984,359.114 58.008 C 359.051 58.013,358.138 59.138,357.084 60.508 M329.600 60.200 C 330.346 60.970,331.047 61.600,331.157 61.600 C 331.267 61.600,330.746 60.970,330.000 60.200 C 329.254 59.430,328.553 58.800,328.443 58.800 C 328.333 58.800,328.854 59.430,329.600 60.200 M351.400 61.850 C 350.681 62.462,350.534 62.705,351.033 62.457 C 351.766 62.093,353.141 60.776,352.749 60.814 C 352.667 60.822,352.060 61.288,351.400 61.850 M327.200 62.150 C 327.750 62.771,328.740 63.650,329.400 64.104 C 330.826 65.085,330.443 64.664,328.000 62.568 C 326.804 61.541,326.536 61.401,327.200 62.150 M336.200 67.600 C 336.640 67.789,337.270 67.944,337.600 67.944 C 337.978 67.944,337.904 67.817,337.400 67.600 C 336.960 67.411,336.330 67.256,336.000 67.256 C 335.622 67.256,335.696 67.383,336.200 67.600 M345.800 67.600 C 345.296 67.817,345.222 67.944,345.600 67.944 C 345.930 67.944,346.560 67.789,347.000 67.600 C 347.504 67.383,347.578 67.256,347.200 67.256 C 346.870 67.256,346.240 67.411,345.800 67.600 M340.700 68.282 C 341.195 68.378,342.005 68.378,342.500 68.282 C 342.995 68.187,342.590 68.109,341.600 68.109 C 340.610 68.109,340.205 68.187,340.700 68.282 M198.931 134.700 C 212.313 134.758,234.093 134.758,247.331 134.700 C 260.569 134.641,249.620 134.594,223.000 134.594 C 196.380 134.594,185.549 134.642,198.931 134.700 M53.385 156.500 C 53.280 156.775,53.240 178.510,53.297 204.800 L 53.400 252.600 101.400 252.602 L 149.400 252.605 101.500 252.501 L 53.600 252.397 53.600 204.400 L 53.600 156.403 101.900 156.300 L 150.200 156.197 101.887 156.098 C 63.533 156.020,53.536 156.103,53.385 156.500 M198.931 156.300 C 212.313 156.358,234.093 156.358,247.331 156.300 C 260.569 156.241,249.620 156.194,223.000 156.194 C 196.380 156.194,185.549 156.242,198.931 156.300 M308.198 204.600 L 308.200 252.600 338.400 252.600 L 368.600 252.600 368.602 204.700 L 368.605 156.800 368.501 204.600 L 368.397 252.400 338.400 252.400 L 308.403 252.400 308.299 204.500 L 308.195 156.600 308.198 204.600 M101.200 159.597 L 145.800 159.800 145.800 204.400 L 145.800 249.000 101.200 249.203 L 56.600 249.405 101.071 249.503 C 141.050 249.590,145.606 249.537,146.171 248.971 C 146.942 248.201,147.151 161.403,146.386 159.974 C 145.980 159.215,145.108 159.202,101.286 159.297 L 56.600 159.395 101.200 159.597 M178.480 159.680 C 178.112 160.048,178.000 170.585,178.000 204.672 L 178.000 249.185 178.900 249.402 C 179.395 249.522,199.600 249.570,223.800 249.510 L 267.800 249.400 267.902 204.300 L 268.003 159.200 223.482 159.200 C 189.387 159.200,178.848 159.312,178.480 159.680 M267.600 204.400 L 267.600 249.200 223.200 249.200 L 178.800 249.200 178.800 204.400 L 178.800 159.600 223.200 159.600 L 267.600 159.600 267.600 204.400 M311.386 160.897 C 311.280 161.174,311.240 181.200,311.297 205.400 L 311.400 249.400 338.400 249.400 L 365.400 249.400 365.400 205.000 L 365.400 160.600 338.489 160.497 C 317.171 160.416,311.537 160.499,311.386 160.897 M365.200 205.000 L 365.200 249.200 338.400 249.200 L 311.600 249.200 311.600 205.000 L 311.600 160.800 338.400 160.800 L 365.200 160.800 365.200 205.000 M198.931 252.700 C 212.313 252.758,234.093 252.758,247.331 252.700 C 260.569 252.641,249.620 252.594,223.000 252.594 C 196.380 252.594,185.549 252.642,198.931 252.700 M51.385 280.500 C 51.280 280.775,51.240 302.510,51.297 328.800 L 51.400 376.600 123.000 376.600 L 194.600 376.600 194.602 328.700 L 194.605 280.800 194.501 328.600 L 194.397 376.400 122.998 376.400 L 51.600 376.400 51.600 328.398 L 51.600 280.396 122.562 280.498 C 161.591 280.554,193.440 280.465,193.338 280.300 C 192.990 279.737,51.599 279.936,51.385 280.500 M273.394 329.000 C 273.394 355.620,273.441 366.569,273.500 353.331 C 273.558 340.093,273.558 318.313,273.500 304.931 C 273.442 291.549,273.394 302.380,273.394 329.000 M56.482 283.678 C 56.112 284.048,56.000 294.495,56.000 328.672 L 56.000 373.185 56.900 373.402 C 57.395 373.522,77.330 373.570,101.200 373.510 L 144.600 373.400 144.600 328.400 L 144.600 283.400 100.782 283.298 C 67.032 283.220,56.853 283.307,56.482 283.678 M148.098 328.297 L 148.200 373.400 169.800 373.400 L 191.400 373.400 191.400 328.400 L 191.400 283.400 169.698 283.297 L 147.997 283.193 148.098 328.297 M144.400 328.400 L 144.400 373.200 100.600 373.200 L 56.800 373.200 56.800 328.400 L 56.800 283.600 100.600 283.600 L 144.400 283.600 144.400 328.400 M191.200 328.400 L 191.200 373.200 169.800 373.200 L 148.400 373.200 148.400 328.400 L 148.400 283.600 169.800 283.600 L 191.200 283.600 191.200 328.400 M277.062 285.100 C 276.960 285.265,296.614 285.350,320.738 285.288 C 344.862 285.227,365.005 285.276,365.500 285.396 L 366.400 285.615 366.400 329.606 L 366.400 373.597 321.500 373.700 L 276.600 373.803 321.700 373.902 L 366.800 374.000 366.800 329.643 C 366.800 289.564,366.739 285.262,366.167 285.043 C 365.244 284.688,277.281 284.745,277.062 285.100 M157.062 305.931 C 156.213 306.870,156.045 328.285,156.880 329.120 C 157.213 329.453,159.287 329.600,163.630 329.600 C 168.200 329.600,170.364 329.764,171.612 330.204 C 173.521 330.878,174.374 330.676,172.555 329.981 C 170.077 329.034,166.906 328.725,162.489 329.000 C 156.283 329.386,156.800 330.420,156.800 317.613 C 156.800 304.087,155.220 305.600,169.340 305.600 L 180.417 305.600 180.877 306.609 C 181.189 307.295,181.219 308.096,180.968 309.109 L 180.600 310.600 172.231 310.708 C 161.885 310.842,162.752 310.188,162.890 317.757 L 163.000 323.800 167.800 324.061 C 170.440 324.204,173.264 324.498,174.075 324.713 C 187.769 328.346,187.291 347.847,173.400 352.240 C 172.213 352.616,172.048 352.753,172.760 352.773 C 176.535 352.878,182.291 347.524,183.942 342.372 C 184.835 339.585,184.216 331.200,183.117 331.200 C 182.943 331.200,182.800 330.895,182.800 330.523 C 182.800 329.597,178.600 325.662,177.274 325.346 C 176.683 325.205,176.020 324.960,175.800 324.803 C 174.841 324.114,171.345 323.600,167.623 323.600 L 163.600 323.600 163.600 317.600 L 163.600 311.600 171.800 311.600 C 181.270 311.600,181.611 311.485,181.587 308.300 C 181.563 305.097,181.979 305.200,169.118 305.200 C 158.588 305.200,157.674 305.255,157.062 305.931 M174.011 330.987 C 174.005 331.200,174.439 331.752,174.977 332.214 C 176.717 333.709,178.067 340.217,176.800 341.000 C 176.580 341.136,176.400 341.596,176.400 342.022 C 176.400 345.181,171.911 347.400,165.523 347.400 C 162.336 347.400,160.773 347.526,161.323 347.738 C 163.465 348.563,170.123 348.154,172.274 347.064 C 176.694 344.824,178.589 340.177,177.169 335.062 C 176.775 333.644,174.035 330.109,174.011 330.987 M154.158 346.224 C 153.269 349.767,155.919 352.893,159.708 352.771 C 160.199 352.756,159.520 352.379,158.200 351.934 C 155.225 350.932,154.946 350.703,154.628 349.010 C 154.021 345.774,154.818 345.122,157.782 346.433 C 158.819 346.892,159.756 347.177,159.866 347.067 C 160.176 346.757,156.415 345.200,155.357 345.200 C 154.680 345.200,154.343 345.488,154.158 346.224 M161.323 353.284 C 161.943 353.679,171.096 353.693,171.337 353.300 C 171.438 353.135,169.119 352.996,166.184 352.991 C 163.248 352.985,161.061 353.118,161.323 353.284 " stroke="none" fill="#7d6554" fill-rule="evenodd"></path><path id="path4" d="M200.800 8.700 L 392.000 8.801 392.000 200.000 L 392.000 391.199 200.700 391.300 L 9.400 391.401 200.800 391.401 L 392.200 391.400 392.200 200.000 L 392.200 8.600 200.900 8.599 L 9.600 8.599 200.800 8.700 M200.500 12.300 L 388.399 12.401 388.500 200.200 L 388.601 388.000 388.601 200.100 L 388.600 12.200 200.600 12.199 L 12.600 12.199 200.500 12.300 M339.633 28.145 C 339.725 28.225,341.330 28.388,343.200 28.508 C 345.573 28.660,346.117 28.623,345.000 28.386 C 343.416 28.050,339.312 27.865,339.633 28.145 M336.400 28.795 C 335.991 29.055,336.310 29.099,337.400 28.932 C 339.377 28.629,339.714 28.398,338.167 28.406 C 337.525 28.409,336.730 28.584,336.400 28.795 M329.336 32.342 C 328.271 33.190,327.040 34.314,326.600 34.839 C 326.160 35.365,326.610 35.074,327.600 34.193 C 328.590 33.313,329.940 32.195,330.600 31.709 C 331.260 31.223,331.681 30.820,331.536 30.813 C 331.391 30.806,330.401 31.494,329.336 32.342 M337.400 32.419 C 336.842 32.671,337.085 32.707,338.200 32.538 C 339.080 32.404,339.875 32.228,339.967 32.147 C 340.310 31.844,338.168 32.071,337.400 32.419 M343.633 32.147 C 343.725 32.228,344.520 32.414,345.400 32.562 C 346.546 32.754,346.830 32.714,346.400 32.421 C 345.860 32.053,343.232 31.793,343.633 32.147 M350.800 34.670 C 352.919 36.218,354.433 37.889,355.790 40.176 C 356.566 41.484,357.200 42.366,357.200 42.138 C 357.200 40.685,353.261 35.910,351.000 34.622 C 349.809 33.944,349.808 33.945,350.800 34.670 M356.997 35.601 C 358.893 37.818,358.920 37.842,358.486 37.000 C 358.259 36.560,357.562 35.751,356.937 35.201 L 355.800 34.203 356.997 35.601 M323.781 38.837 C 323.429 39.518,323.212 40.145,323.299 40.232 C 323.386 40.319,323.756 39.762,324.122 38.995 C 324.944 37.270,324.659 37.138,323.781 38.837 M148.603 38.405 C 148.737 38.622,149.107 38.800,149.424 38.800 C 149.922 38.800,150.000 45.299,150.000 86.998 L 150.000 135.197 101.600 135.301 L 53.200 135.405 101.700 135.402 L 150.200 135.400 150.200 87.046 L 150.200 38.692 149.280 38.351 C 148.693 38.134,148.448 38.154,148.603 38.405 M174.594 86.400 C 174.594 113.130,174.642 124.065,174.700 110.700 C 174.758 97.335,174.758 75.465,174.700 62.100 C 174.642 48.735,174.594 59.670,174.594 86.400 M271.394 86.400 C 271.394 113.130,271.442 124.065,271.500 110.700 C 271.558 97.335,271.558 75.465,271.500 62.100 C 271.442 48.735,271.394 59.670,271.394 86.400 M322.671 41.100 C 322.394 41.570,321.882 44.224,322.111 44.000 C 322.374 43.744,323.183 40.800,322.991 40.800 C 322.912 40.800,322.768 40.935,322.671 41.100 M361.168 43.900 C 361.359 45.281,361.387 45.309,361.519 44.251 C 361.598 43.619,361.505 42.945,361.312 42.752 C 361.110 42.550,361.049 43.040,361.168 43.900 M321.453 46.900 C 321.321 48.055,321.353 49.630,321.524 50.400 C 321.759 51.456,321.841 50.940,321.858 48.300 C 321.885 44.273,321.790 43.944,321.453 46.900 M325.140 46.500 C 325.063 47.435,325.107 49.100,325.237 50.200 C 325.427 51.803,325.487 51.466,325.537 48.500 C 325.602 44.654,325.384 43.551,325.140 46.500 M358.120 48.400 C 358.120 49.610,358.195 50.105,358.287 49.500 C 358.378 48.895,358.378 47.905,358.287 47.300 C 358.195 46.695,358.120 47.190,358.120 48.400 M357.429 52.629 C 357.281 53.215,357.238 53.772,357.332 53.866 C 357.427 53.960,357.624 53.558,357.771 52.971 C 357.919 52.385,357.962 51.828,357.868 51.734 C 357.773 51.640,357.576 52.042,357.429 52.629 M361.254 52.267 C 361.225 52.744,361.096 53.464,360.970 53.867 C 360.752 54.561,360.764 54.562,361.196 53.888 C 361.447 53.497,361.575 52.777,361.481 52.288 C 361.309 51.401,361.309 51.401,361.254 52.267 M322.056 53.200 C 322.056 53.530,322.211 54.160,322.400 54.600 C 322.617 55.104,322.744 55.178,322.744 54.800 C 322.744 54.470,322.589 53.840,322.400 53.400 C 322.183 52.896,322.056 52.822,322.056 53.200 M359.681 57.009 C 359.202 57.994,358.894 58.800,358.997 58.800 C 359.268 58.800,360.884 55.551,360.703 55.370 C 360.619 55.286,360.159 56.024,359.681 57.009 M355.047 57.784 C 354.693 58.325,353.637 59.525,352.701 60.451 C 351.608 61.532,351.429 61.814,352.200 61.240 C 353.245 60.461,356.000 57.346,356.000 56.944 C 356.000 56.566,355.633 56.890,355.047 57.784 M328.022 57.800 C 328.977 59.219,330.570 60.853,331.800 61.675 C 332.809 62.348,332.777 62.283,331.600 61.267 C 330.830 60.602,329.589 59.370,328.842 58.529 C 328.095 57.688,327.726 57.360,328.022 57.800 M355.952 62.035 C 354.495 63.556,353.422 64.800,353.566 64.800 C 353.841 64.800,357.472 61.099,358.372 59.900 C 359.338 58.615,358.623 59.245,355.952 62.035 M325.991 61.188 C 326.457 61.841,327.042 62.502,327.291 62.656 C 327.541 62.811,327.241 62.276,326.625 61.468 C 325.288 59.715,324.784 59.492,325.991 61.188 M337.738 64.494 C 337.992 64.656,339.820 64.788,341.800 64.788 C 343.780 64.788,345.608 64.656,345.862 64.494 C 346.116 64.332,344.288 64.200,341.800 64.200 C 339.312 64.200,337.484 64.332,337.738 64.494 M339.694 68.535 C 341.030 68.741,342.782 68.740,343.894 68.532 C 345.535 68.224,345.215 68.175,341.600 68.178 C 337.697 68.182,337.562 68.207,339.694 68.535 M174.594 204.400 C 174.594 231.130,174.642 242.065,174.700 228.700 C 174.758 215.335,174.758 193.465,174.700 180.100 C 174.642 166.735,174.594 177.670,174.594 204.400 M271.394 204.400 C 271.394 231.130,271.442 242.065,271.500 228.700 C 271.558 215.335,271.558 193.465,271.500 180.100 C 271.442 166.735,271.394 177.670,271.394 204.400 M150.000 204.480 C 149.890 231.034,149.936 252.624,150.102 252.458 C 150.268 252.292,150.358 230.566,150.302 204.178 L 150.200 156.200 150.000 204.480 M323.100 156.700 C 331.515 156.760,345.285 156.760,353.700 156.700 C 362.115 156.640,355.230 156.590,338.400 156.590 C 321.570 156.590,314.685 156.640,323.100 156.700 M321.700 280.699 L 370.000 280.803 370.000 329.000 L 370.000 377.197 321.600 377.301 L 273.200 377.405 321.700 377.402 L 370.200 377.400 370.200 329.000 L 370.200 280.600 321.800 280.598 L 273.400 280.595 321.700 280.699 " stroke="none" fill="#919191" fill-rule="evenodd"></path></g></svg>